<?xml version="1.0" standalone="no"?><!DOCTYPE svg PUBLIC "-//W3C//DTD SVG 1.1//EN" "http://www.w3.org/Graphics/SVG/1.1/DTD/svg11.dtd"><svg t="1629430166891" class="icon" viewBox="0 0 1024 1024" version="1.1" xmlns="http://www.w3.org/2000/svg" p-id="4676" xmlns:xlink="http://www.w3.org/1999/xlink" width="128" height="128"><defs><style type="text/css"></style></defs><path d="M981.917808 649.468493h-115.024657V492.361644c0-19.638356-15.430137-35.068493-35.068493-35.068493H542.860274V378.739726h106.608219c19.638356 0 35.068493-15.430137 35.068493-35.068493V57.512329c0-19.638356-15.430137-35.068493-35.068493-35.068493H364.712329c-19.638356 0-35.068493 15.430137-35.068493 35.068493v286.158904c0 19.638356 15.430137 35.068493 35.068493 35.068493h109.413698v78.553425H192.175342c-19.638356 0-35.068493 15.430137-35.068493 35.068493v157.106849H42.082192c-19.638356 0-35.068493 15.430137-35.068493 35.068493v286.158904c0 19.638356 15.430137 35.068493 35.068493 35.068494h286.158904c19.638356 0 35.068493-15.430137 35.068493-35.068494V684.536986c0-19.638356-15.430137-35.068493-35.068493-35.068493h-100.99726v-122.038356h568.109589v122.038356h-100.997261c-19.638356 0-35.068493 15.430137-35.068493 35.068493v286.158904c0 19.638356 15.430137 35.068493 35.068493 35.068494H981.917808c19.638356 0 35.068493-15.430137 35.068493-35.068494V684.536986c0-19.638356-15.430137-35.068493-35.068493-35.068493zM399.780822 92.580822h216.021918V308.60274H399.780822V92.580822z m-106.608219 843.046575H77.150685V719.605479h216.021918v216.021918z m653.676712 0H730.827397V719.605479h216.021918v216.021918z" p-id="4677" fill="#ffffff"></path></svg>