<?xml version="1.0" standalone="no"?><!DOCTYPE svg PUBLIC "-//W3C//DTD SVG 1.1//EN" "http://www.w3.org/Graphics/SVG/1.1/DTD/svg11.dtd"><svg t="1631256953191" class="icon" viewBox="0 0 1170 1024" version="1.1" xmlns="http://www.w3.org/2000/svg" p-id="2187" xmlns:xlink="http://www.w3.org/1999/xlink" width="146.25" height="128"><defs><style type="text/css"></style></defs><path d="M1106.87 710.949h-77.092V500.443c0-15.36-13.02-27.282-29.623-27.282H615.424v-160.11h76.434c34.963 0 63.415-26.185 63.415-58.44V58.513C755.273 26.331 726.821 0 691.931 0H478.427c-34.962 0-63.414 26.258-63.414 58.514v196.023c0 32.256 28.452 58.514 63.414 58.514h77.093v160.183H170.13c-16.603 0-29.623 11.996-29.623 27.283v210.432H63.415C28.453 710.949 0 737.207 0 769.463v196.023c0 32.183 28.526 58.44 63.415 58.44H276.26c34.962 0 63.414-26.257 63.414-58.513v-195.95c0-32.256-28.452-58.514-63.414-58.514h-77.093V527.872H555.52l0.585 183.003h-77.75c-34.963 0-63.416 26.259-63.416 58.515v196.096c0 32.183 28.453 58.44 63.415 58.44h213.431c34.962 0 63.415-26.257 63.415-58.513v-195.95c0-32.256-28.453-58.514-63.415-58.514h-75.849l-0.585-183.004h355.108V710.95H893.44c-34.962 0-63.415 26.258-63.415 58.514v196.023c0 32.183 28.453 58.44 63.415 58.44h213.43c34.963 0 63.416-26.257 63.416-58.513v-195.95c-0.585-32.256-29.038-58.514-63.415-58.514z" p-id="2188" fill="#ffffff"></path></svg>